HIERARCHY
ROOT Hips
{
	OFFSET 0.000000 0.000000 0.000000
	CHANNELS 6 Xposition Yposition Zposition Zrotation Yrotation Xrotation 
	JOINT LHipJoint
	{
		OFFSET 0.000000 0.000000 0.000000
		CHANNELS 3 Zrotation Yrotation Xrotation
		JOINT LeftUpLeg
		{
			OFFSET 1.363060 -1.794630 0.839290
			CHANNELS 3 Zrotation Yrotation Xrotation
			JOINT LeftLeg
			{
				OFFSET 2.448110 -6.726130 0.000000
				CHANNELS 3 Zrotation Yrotation Xrotation
				JOINT LeftFoot
				{
					OFFSET 2.562200 -7.039590 0.000000
					CHANNELS 3 Zrotation Yrotation Xrotation
					JOINT LeftToeBase
					{
						OFFSET 0.157640 -0.433110 2.322550
						CHANNELS 3 Zrotation Yrotation Xrotation
						End Site
						{
							OFFSET 0.000000 0.000000 0.000000
						}
					}
				}
			}
		}
	}
	JOINT RHipJoint
	{
		OFFSET 0.000000 0.000000 0.000000
		CHANNELS 3 Zrotation Yrotation Xrotation
		JOINT RightUpLeg
		{
			OFFSET -1.305520 -1.794630 0.839290
			CHANNELS 3 Zrotation Yrotation Xrotation
			JOINT RightLeg
			{
				OFFSET -2.542530 -6.985550 0.000000
				CHANNELS 3 Zrotation Yrotation Xrotation
				JOINT RightFoot
				{
					OFFSET -2.568260 -7.056230 0.000000
					CHANNELS 3 Zrotation Yrotation Xrotation
					JOINT RightToeBase
					{
						OFFSET -0.164730 -0.452590 2.363150
						CHANNELS 3 Zrotation Yrotation Xrotation
						End Site
						{
							OFFSET 0.000000 0.000000 0.000000
						}
					}
				}
			}
		}
	}
	JOINT LowerBack
	{
		OFFSET 0.000000 0.000000 0.000000
		CHANNELS 3 Zrotation Yrotation Xrotation
		JOINT Spine
		{
			OFFSET 0.028270 2.035590 -0.193380
			CHANNELS 3 Zrotation Yrotation Xrotation
			JOINT Spine1
			{
				OFFSET 0.056720 2.048850 -0.042750
				CHANNELS 3 Zrotation Yrotation Xrotation
				JOINT Neck
				{
					OFFSET 0.000000 0.000000 0.000000
					CHANNELS 3 Zrotation Yrotation Xrotation
					JOINT Neck1
					{
						OFFSET -0.054170 1.746240 0.172020
						CHANNELS 3 Zrotation Yrotation Xrotation
						JOINT Head
						{
							OFFSET 0.104070 1.761360 -0.123970
							CHANNELS 3 Zrotation Yrotation Xrotation
							End Site
							{
								OFFSET 0.000000 0.000000 0.000000
							}
						}
					}
				}
				JOINT LeftShoulder
				{
					OFFSET 0.000000 0.000000 0.000000
					CHANNELS 3 Zrotation Yrotation Xrotation
					JOINT LeftArm
					{
						OFFSET 3.362410 1.200890 -0.311210
						CHANNELS 3 Zrotation Yrotation Xrotation
						JOINT LeftForeArm
						{
							OFFSET 4.983000 -0.000000 -0.000000
							CHANNELS 3 Zrotation Yrotation Xrotation
							JOINT LeftHand
							{
								OFFSET 3.483560 -0.000000 -0.000000
								CHANNELS 3 Zrotation Yrotation Xrotation
								JOINT LeftFingerBase
								{
									OFFSET 0.000000 0.000000 0.000000
									CHANNELS 3 Zrotation Yrotation Xrotation
									JOINT LeftHandIndex1
									{
										OFFSET 0.715260 -0.000000 -0.000000
										CHANNELS 3 Zrotation Yrotation Xrotation
										End Site
										{
											OFFSET 0.000000 0.000000 0.000000
										}
									}
								}
								JOINT LThumb
								{
									OFFSET 0.000000 0.000000 0.000000
									CHANNELS 3 Zrotation Yrotation Xrotation
									End Site
									{
										OFFSET 0.000000 0.000000 0.000000
									}
								}
							}
						}
					}
				}
				JOINT RightShoulder
				{
					OFFSET 0.000000 0.000000 0.000000
					CHANNELS 3 Zrotation Yrotation Xrotation
					JOINT RightArm
					{
						OFFSET -3.136600 1.374050 -0.404650
						CHANNELS 3 Zrotation Yrotation Xrotation
						JOINT RightForeArm
						{
							OFFSET -5.241900 -0.000000 -0.000000
							CHANNELS 3 Zrotation Yrotation Xrotation
							JOINT RightHand
							{
								OFFSET -3.444170 -0.000000 -0.000000
								CHANNELS 3 Zrotation Yrotation Xrotation
								JOINT RightFingerBase
								{
									OFFSET 0.000000 0.000000 0.000000
									CHANNELS 3 Zrotation Yrotation Xrotation
									JOINT RightHandIndex1
									{
										OFFSET -0.622530 -0.000000 -0.000000
										CHANNELS 3 Zrotation Yrotation Xrotation
										End Site
										{
											OFFSET 0.000000 0.000000 0.000000
										}
									}
								}
								JOINT RThumb
								{
									OFFSET 0.000000 0.000000 0.000000
									CHANNELS 3 Zrotation Yrotation Xrotation
									End Site
									{
										OFFSET 0.000000 0.000000 0.000000
									}
								}
							}
						}
					}
				}
			}
		}
	}
}
MOTION
Frames: 9
Frame Time: 0.008333
-0.366293 17.784661 -0.239011 66.036909 85.554772 67.295377 -11.215011 4.729189 -0.503300 0.272938 23.069719 -3.325765 -0.699205 1.514483 25.425193 0.874997 -1.913775 23.400912 -1.349301 -0.000000 -68.350300 9.642844 -0.989569 1.010459 15.029056 -15.328617 -23.720118 1.942105 1.166412 2.675587 -3.864212 -19.225824 -1.719610 -3.767901 0.000000 -48.838099 -1.472778 -9.088066 -3.279452 0.113221 -9.211068 -2.308727 -3.965530 -9.298360 4.531547 10.861239 -26.135739 -12.046586 -1.961816 -0.085338 -1.071144 0.000000 0.000000 0.000000 8.180493 18.746990 -0.157930 -49.521116 10.303328 -11.138287 -1.086203 -65.904572 -0.076889 15.776312 -0.551575 -0.118489 -0.235416 0.301317 0.000000 0.000000 0.000000 0.000000 0.000000 0.000000 0.000000 18.192502 -26.604711 -0.819696 82.404562 -27.026001 -14.108763 4.485578 22.147727 -0.001899 6.027360 -0.257549 -0.014091 0.082166 0.018530 0.000000 0.000000 0.000000 0.000000 0.000000 0.000000 0.000000 
-0.161592 17.827570 -0.131047 69.250757 85.596011 70.286649 -11.052198 4.684852 -0.643123 0.939464 23.627813 -3.650612 -0.586629 1.554532 26.719017 1.009548 -2.230335 25.480107 -1.651800 -0.000000 -65.373100 9.867010 -1.030687 1.133353 15.086583 -14.614738 -22.974276 1.864842 1.137829 2.372373 -3.817733 -19.267644 -1.014953 -4.014200 0.000000 -48.598800 -1.861865 -9.265771 -3.303075 0.062759 -9.369486 -2.288259 -3.902398 -9.462624 4.561475 10.911198 -26.270841 -11.960329 -1.914821 -0.081995 -1.047476 0.000000 0.000000 0.000000 8.565502 18.667064 -0.182123 -48.865415 10.595341 -11.471282 -1.055963 -66.123010 -0.077495 15.543088 -0.934750 -0.171445 -0.229562 0.313143 0.000000 0.000000 0.000000 0.000000 0.000000 0.000000 0.000000 18.144023 -26.869406 -0.827426 82.821535 -27.475487 -15.261872 4.516684 21.606576 -0.002128 5.978936 -0.366580 -0.019696 0.083543 0.019191 0.000000 0.000000 0.000000 0.000000 0.000000 0.000000 0.000000 
0.040635 17.860569 -0.027262 71.008895 85.563430 71.787725 -10.936340 4.617320 -0.815058 1.621948 24.313625 -3.958680 -0.490570 1.583054 27.990491 1.143801 -2.056970 27.004271 -1.686500 0.000000 -62.160300 10.026272 -1.085826 1.216389 15.219170 -13.929007 -22.312391 1.784382 1.060237 2.544524 -3.801464 -19.412243 -0.397985 -4.249300 0.000000 -47.934099 -2.226228 -9.400037 -3.254823 0.009015 -9.484847 -2.258053 -3.851187 -9.581428 4.583907 10.944311 -26.338963 -11.895907 -1.869440 -0.078384 -1.030655 0.000000 0.000000 0.000000 8.823606 18.632441 -0.187667 -48.291831 10.868170 -11.864575 -1.033713 -66.254814 -0.077773 15.314573 -1.223755 -0.209598 -0.224467 0.322372 0.000000 0.000000 0.000000 0.000000 0.000000 0.000000 0.000000 18.062702 -27.038608 -0.819981 83.216162 -27.750924 -16.346538 4.548831 21.011448 -0.002290 5.970888 -0.444975 -0.023701 0.084597 0.019489 -0.000000 0.000000 0.000000 0.000000 0.000000 0.000000 0.000000 
0.240905 17.883017 0.072518 71.523844 85.464444 72.013299 -10.862568 4.527246 -1.017367 2.310947 25.128575 -4.239225 -0.406692 1.602893 29.210376 1.272665 -1.342017 27.955092 -1.396400 0.000000 -58.960600 10.126773 -1.157850 1.262231 15.424381 -13.316398 -21.722012 1.702118 0.943612 3.087476 -3.809506 -19.649999 0.180660 -4.491200 0.000000 -46.846400 -2.575412 -9.495535 -3.141469 -0.049406 -9.561218 -2.218756 -3.811364 -9.658957 4.599089 10.959946 -26.347471 -11.849318 -1.826778 -0.074692 -1.019406 0.000000 0.000000 0.000000 8.962391 18.633743 -0.175245 -47.796160 11.130432 -12.308458 -1.018939 -66.294354 -0.077797 15.110839 -1.403582 -0.231847 -0.220573 0.328717 0.000000 0.000000 0.000000 0.000000 0.000000 0.000000 0.000000 17.954528 -27.121982 -0.800644 83.579729 -27.861840 -17.328210 4.580273 20.388832 -0.002422 6.001579 -0.509883 -0.027207 0.085291 0.019575 -0.000000 0.000000 0.000000 0.000000 0.000000 0.000000 0.000000 
0.439418 17.894330 0.168594 71.077346 85.297853 71.230734 -10.822074 4.418223 -1.249225 3.002464 26.058680 -4.451134 -0.331800 1.617030 30.331988 1.396293 -0.076571 28.355892 -0.771600 0.000000 -56.149800 10.182717 -1.243828 1.259057 15.684780 -12.861457 -21.159545 1.621463 0.799292 3.878399 -3.826460 -19.926007 0.749537 -4.736500 -0.000000 -45.298400 -2.924144 -9.555471 -2.952412 -0.116112 -9.600859 -2.167771 -3.783190 -9.697278 4.606003 10.961064 -26.301608 -11.816298 -1.788628 -0.071138 -1.012578 0.000000 0.000000 0.000000 8.997110 18.661814 -0.146745 -47.376531 11.385205 -12.792680 -1.011190 -66.233459 -0.077671 14.952589 -1.469835 -0.238690 -0.218175 0.332080 0.000000 0.000000 0.000000 0.000000 0.000000 0.000000 0.000000 17.832504 -27.127310 -0.773380 83.907853 -27.820619 -18.186891 4.608131 19.770933 -0.002544 6.061001 -0.573340 -0.030712 0.085615 0.019514 -0.000000 0.000000 0.000000 0.000000 0.000000 0.000000 0.000000 
0.636721 17.894039 0.261838 69.926779 85.052681 69.715908 -10.802714 4.296225 -1.504118 3.669313 27.093852 -4.615665 -0.268083 1.627456 31.345530 1.513923 1.686686 28.200537 0.144299 0.000000 -53.652200 10.209627 -1.337939 1.219405 15.970903 -12.566591 -20.619822 1.541413 0.641731 4.813526 -3.850159 -20.226555 1.294167 -4.978500 0.000001 -43.192001 -3.288501 -9.580668 -2.710083 -0.194056 -9.603610 -2.108767 -3.766917 -9.696598 4.605147 10.952087 -26.211532 -11.791945 -1.756070 -0.067927 -1.008628 0.000000 0.000000 0.000000 8.949294 18.706766 -0.105253 -47.030090 11.639730 -13.298536 -1.009561 -66.065438 -0.077487 14.857428 -1.428193 -0.231723 -0.217468 0.332492 0.000000 0.000000 0.000000 0.000000 0.000000 0.000000 0.000000 17.708153 -27.064783 -0.741548 84.195741 -27.651398 -18.896106 4.629572 19.199533 -0.002667 6.131541 -0.644296 -0.034817 0.085657 0.019351 -0.000000 0.000000 0.000000 0.000000 0.000000 0.000000 0.000000 
0.833281 17.881782 0.353123 68.340113 84.723181 67.755003 -10.791103 4.166767 -1.775527 4.287461 28.213261 -4.750721 -0.219241 1.635061 32.235670 1.626456 3.849937 27.507207 1.262700 -0.000000 -51.454100 10.223330 -1.432191 1.156370 16.249656 -12.413699 -20.087313 1.461382 0.486125 5.790063 -3.880913 -20.539152 1.761336 -5.196400 0.000000 -40.399000 -3.679832 -9.572006 -2.435175 -0.285121 -9.569607 -2.045154 -3.763125 -9.657399 4.597120 10.939509 -26.088349 -11.772911 -1.729918 -0.065212 -1.006488 0.000000 0.000000 0.000000 8.841636 18.761356 -0.054055 -46.753835 11.895244 -13.805752 -1.013392 -65.784660 -0.077323 14.837605 -1.292872 -0.213249 -0.218487 0.330147 0.000000 0.000000 0.000000 0.000000 0.000000 0.000000 0.000000 17.594434 -26.945810 -0.708469 84.439423 -27.376769 -19.427070 4.641595 18.714294 -0.002778 6.191408 -0.719674 -0.039221 0.085525 0.019067 -0.000000 0.000000 0.000000 0.000000 0.000000 0.000000 0.000000 
1.028937 17.857289 0.443118 66.592259 84.315638 65.620383 -10.775105 4.033054 -2.061584 4.858509 29.388072 -4.840548 -0.188854 1.640352 32.980567 1.734704 6.268173 26.312084 2.458900 -0.000000 -49.453999 10.238689 -1.518727 1.068802 16.492060 -12.411153 -19.512806 1.384891 0.345788 6.703992 -3.913948 -20.822133 2.064508 -5.346800 -0.000000 -36.773300 -4.102016 -9.531472 -2.125195 -0.390425 -9.500721 -1.976260 -3.774031 -9.581407 4.580795 10.932803 -25.934496 -11.758022 -1.712663 -0.063223 -1.005891 0.000000 0.000000 0.000000 8.695473 18.819473 0.004329 -46.544471 12.144513 -14.297232 -1.022641 -65.388176 -0.077230 14.900037 -1.084569 -0.185970 -0.221103 0.325354 0.000000 0.000000 0.000000 0.000000 0.000000 0.000000 0.000000 17.513063 -26.773645 -0.677988 84.641200 -27.019291 -19.783914 4.641076 18.361435 -0.002853 6.227203 -0.796849 -0.043625 0.085225 0.018585 -0.000000 0.000000 0.000000 0.000000 0.000000 0.000000 0.000000 
1.224163 17.820421 0.532713 64.850251 83.839052 63.517764 -10.743953 3.897692 -2.350976 5.352879 30.583876 -4.943384 -0.182300 1.641644 33.588842 1.838394 8.781053 24.661582 3.599400 -0.000000 -47.543100 10.263096 -1.591159 0.984313 16.681551 -12.462611 -18.912240 1.311278 0.232246 7.507113 -3.962457 -21.101341 2.090028 -5.397400 -0.000001 -32.219000 -4.551428 -9.461032 -1.818537 -0.507484 -9.398952 -1.909221 -3.800078 -9.471321 4.557910 10.938929 -25.764246 -11.747661 -1.704000 -0.061973 -1.006656 0.000000 0.000000 0.000000 8.527749 18.877725 0.067419 -46.395152 12.383894 -14.748455 -1.037017 -64.877902 -0.077199 15.043303 -0.826245 -0.152283 -0.225118 0.318458 0.000000 0.000000 0.000000 0.000000 0.000000 0.000000 0.000000 17.472673 -26.562118 -0.652187 84.794157 -26.600355 -19.927772 4.626014 18.174878 -0.002862 6.218072 -0.860180 -0.046826 0.084894 0.017850 -0.000000 0.000000 0.000000 0.000000 0.000000 0.000000 0.000000 
